<?xml version="1.0" standalone="no"?>
<!DOCTYPE svg PUBLIC "-//W3C//DTD SVG 20010904//EN"
 "http://www.w3.org/TR/2001/REC-SVG-20010904/DTD/svg10.dtd">
<svg version="1.0" xmlns="http://www.w3.org/2000/svg"
 width="1024.000000pt" height="1024.000000pt" viewBox="0 0 1024.000000 1024.000000"
 preserveAspectRatio="xMidYMid meet">
<metadata>
Created by potrace 1.11, written by Peter Selinger 2001-2013
</metadata>
<g transform="translate(0.000000,1024.000000) scale(0.100000,-0.100000)"
fill="#000000" stroke="none">
<path d="M4965 8179 c-71 -10 -147 -30 -335 -89 -74 -23 -148 -46 -165 -50
-16 -4 -120 -36 -230 -70 -110 -34 -207 -63 -215 -65 -16 -5 -383 -116 -538
-164 -148 -46 -365 -112 -382 -117 -8 -2 -112 -33 -230 -70 -118 -36 -235 -72
-260 -79 -60 -17 -785 -239 -950 -290 -41 -13 -91 -28 -110 -33 -234 -65
-1300 -399 -1348 -423 -75 -39 -134 -100 -170 -177 -23 -49 -26 -70 -26 -152
0 -82 4 -103 28 -155 32 -71 82 -126 151 -164 65 -37 87 -44 675 -227 102 -31
186 -58 188 -60 5 -3 -15 -39 -30 -56 -51 -53 -144 -227 -181 -339 -33 -97
-64 -252 -66 -326 -1 -27 -8 -37 -43 -59 -136 -86 -219 -246 -213 -414 5 -145
48 -243 151 -345 66 -65 70 -72 62 -100 -4 -16 -11 -43 -13 -60 -3 -16 -10
-46 -15 -65 -5 -19 -11 -47 -14 -63 -3 -15 -7 -35 -10 -45 -3 -9 -7 -28 -10
-42 -2 -14 -9 -43 -14 -65 -6 -22 -13 -52 -16 -68 -3 -15 -7 -35 -10 -45 -3
-9 -7 -28 -10 -42 -6 -35 -59 -268 -112 -500 -25 -107 -48 -206 -50 -220 -3
-14 -7 -33 -10 -42 -3 -10 -7 -28 -10 -40 -7 -40 -11 -59 -64 -288 -41 -180
-50 -236 -46 -282 11 -117 89 -210 196 -233 44 -10 967 -9 1012 0 138 30 224
182 189 333 -6 26 -13 56 -15 67 -2 11 -15 70 -29 130 -39 166 -96 419 -117
515 -11 47 -31 137 -45 200 -14 63 -32 142 -40 175 -58 260 -127 566 -135 595
-5 19 -12 50 -15 68 -3 19 -7 37 -8 41 -1 5 23 32 53 62 87 84 138 169 156
261 8 38 9 171 1 208 -21 104 -86 205 -182 283 -58 46 -60 50 -57 90 12 172
139 400 284 513 30 22 54 34 65 31 10 -3 56 -17 103 -32 47 -15 92 -28 100
-30 8 -2 15 -4 15 -5 0 -1 7 -3 15 -5 8 -1 42 -12 75 -23 33 -11 98 -32 145
-45 47 -14 308 -93 580 -177 272 -83 574 -176 670 -205 96 -29 204 -62 240
-73 132 -42 366 -114 395 -122 17 -5 60 -18 98 -29 105 -33 183 -56 307 -94
63 -19 205 -63 315 -96 233 -71 263 -76 450 -75 166 2 176 4 615 139 538 165
644 197 690 210 25 7 90 27 145 45 55 17 105 33 110 34 6 2 30 9 55 16 25 7
50 15 55 16 6 2 78 24 160 49 83 26 157 48 165 50 8 3 110 34 225 69 362 111
710 218 720 220 6 1 48 14 95 29 47 14 189 58 315 96 624 190 739 225 845 258
63 19 230 70 371 112 140 43 280 89 310 103 145 68 221 195 214 361 -3 77 -19
129 -55 182 -65 94 -124 129 -320 190 -172 54 -447 137 -475 145 -16 4 -60 17
-98 30 -37 12 -73 23 -80 24 -6 2 -19 6 -27 9 -14 5 -469 144 -500 152 -8 2
-53 16 -100 30 -47 15 -101 31 -120 37 -32 9 -251 76 -535 163 -60 19 -186 57
-280 85 -93 29 -228 70 -300 92 -71 22 -157 48 -190 58 -33 10 -114 34 -180
55 -66 20 -124 38 -130 39 -5 2 -17 5 -25 8 -8 3 -94 29 -190 58 -195 58 -272
81 -440 134 -469 145 -840 255 -885 262 -60 9 -281 11 -340 3z"/>
<path d="M2265 4823 c-12 -106 -14 -118 -20 -168 -3 -27 -8 -61 -10 -75 -2
-14 -16 -122 -30 -240 -14 -118 -28 -226 -30 -240 -2 -14 -6 -50 -10 -80 -3
-30 -8 -71 -10 -90 -2 -19 -7 -57 -10 -85 -3 -27 -8 -61 -10 -75 -2 -14 -7
-50 -10 -80 -7 -62 -14 -123 -20 -160 -2 -14 -6 -47 -9 -75 -3 -27 -8 -66 -11
-85 -2 -19 -7 -55 -9 -80 -3 -25 -9 -67 -13 -95 -4 -27 -7 -89 -7 -136 -1 -81
2 -91 41 -170 112 -226 428 -418 946 -574 117 -35 354 -96 432 -111 22 -4 45
-8 50 -9 6 -2 57 -12 115 -23 99 -20 130 -25 225 -37 22 -3 51 -8 65 -10 14
-3 48 -7 75 -10 28 -3 84 -10 125 -15 85 -10 204 -20 445 -37 149 -10 917 -10
1080 0 200 12 408 30 495 42 19 3 62 7 95 11 55 5 367 56 425 69 14 3 50 10
80 16 77 15 319 75 420 106 671 200 1016 456 1015 753 -1 66 -10 178 -21 234
-2 10 -6 44 -9 75 -3 31 -8 67 -10 81 -3 14 -7 46 -10 73 -9 87 -15 132 -19
152 -2 11 -7 54 -11 95 -4 41 -8 77 -10 80 -1 3 -6 32 -9 65 -10 87 -46 376
-50 405 -2 14 -7 52 -11 85 -4 33 -8 74 -11 90 -2 17 -6 48 -8 70 -3 22 -7 60
-10 85 -4 25 -8 61 -11 80 -2 19 -7 61 -11 93 -3 31 -8 57 -10 57 -2 0 -23 -6
-46 -14 -64 -21 -317 -98 -918 -281 -228 -69 -422 -128 -430 -130 -20 -5 -168
-50 -590 -178 -344 -105 -470 -140 -544 -151 -21 -4 -42 -8 -46 -11 -11 -6
-196 -19 -280 -18 -77 0 -219 10 -255 17 -29 6 -167 36 -185 41 -58 14 -200
56 -550 163 -156 48 -892 272 -1250 380 -91 28 -226 69 -300 92 -74 23 -142
43 -150 45 -8 2 -44 13 -80 24 -36 11 -66 21 -66 21 -1 0 -5 -26 -9 -57z"/>
</g>
</svg>
